<?xml version="1.0" encoding="UTF-8"?>
<svg xmlns="http://www.w3.org/2000/svg" xmlns:xlink="http://www.w3.org/1999/xlink" width="375pt" height="374.999991pt" viewBox="0 0 375 374.999991" version="1.2">
<defs>
<clipPath id="clip1">
  <path d="M 74.550781 194 L 130 194 L 130 255 L 74.550781 255 Z M 74.550781 194 "/>
</clipPath>
</defs>
<g id="surface1">
<path style=" stroke:none;fill-rule:nonzero;fill:rgb(100%,59.609985%,50.19989%);fill-opacity:1;" d="M 90.046875 203.238281 C 90.046875 203.238281 105.636719 188.148438 120.183594 188.148438 L 120.699219 198.542969 Z M 90.046875 203.238281 "/>
<path style=" stroke:none;fill-rule:nonzero;fill:rgb(100%,90.589905%,76.078796%);fill-opacity:1;" d="M 295.804688 242.683594 C 291.960938 249.496094 284.996094 254.492188 276.121094 258.0625 C 275.003906 258.507812 273.859375 258.9375 272.6875 259.339844 C 263.984375 262.339844 253.75 264.15625 242.957031 265.109375 C 236.921875 265.648438 230.714844 265.910156 224.5 265.964844 L 223.324219 265.964844 L 223.28125 265.933594 C 223.246094 265.914062 223.214844 265.894531 223.175781 265.878906 C 223.019531 265.8125 222.855469 265.792969 222.683594 265.820312 C 222.660156 265.820312 222.636719 265.804688 222.613281 265.820312 C 222.488281 265.847656 222.371094 265.945312 222.261719 265.945312 C 199.371094 265.945312 174.355469 270.292969 152.53125 261.234375 C 123.4375 249.148438 121.453125 208.210938 127.625 181.65625 C 135.46875 147.871094 167.101562 104.691406 206.617188 123.007812 C 223.691406 130.929688 235.410156 147.613281 245.585938 162.769531 C 253.609375 174.703125 267.734375 180.945312 278.128906 190.492188 C 288.144531 199.675781 295.324219 209.496094 297.960938 220.371094 C 300.152344 229.382812 299.167969 236.726562 295.804688 242.683594 Z M 295.804688 242.683594 "/>
<path style=" stroke:none;fill-rule:nonzero;fill:rgb(54.119873%,28.62854%,0%);fill-opacity:1;" d="M 214.53125 184.113281 L 148.660156 184.113281 L 148.660156 158.550781 C 151.003906 158.703125 153.054688 158.84375 155.175781 158.996094 C 153.460938 156.074219 152.507812 152.921875 152.320312 149.535156 C 151.96875 141.347656 157.007812 132.816406 172.65625 130.46875 C 189.648438 127.90625 192.027344 142.890625 201.078125 152.054688 C 203.496094 154.554688 206.351562 156.359375 209.648438 157.472656 C 225.398438 162.800781 216.34375 180.886719 214.53125 184.113281 Z M 214.53125 184.113281 "/>
<path style=" stroke:none;fill-rule:nonzero;fill:rgb(96.078491%,52.549744%,41.958618%);fill-opacity:1;" d="M 89.527344 229.253906 L 135.125 206.621094 L 116.027344 255.789062 Z M 89.527344 229.253906 "/>
<path style=" stroke:none;fill-rule:nonzero;fill:rgb(96.078491%,52.549744%,41.958618%);fill-opacity:1;" d="M 204.050781 186.003906 C 204.007812 186.414062 203.925781 186.820312 203.808594 187.214844 C 203.691406 187.609375 203.539062 187.992188 203.351562 188.359375 C 203.164062 188.726562 202.941406 189.074219 202.691406 189.402344 C 202.441406 189.730469 202.160156 190.03125 201.855469 190.308594 C 201.546875 190.582031 201.21875 190.828125 200.867188 191.042969 C 200.515625 191.257812 200.148438 191.441406 199.761719 191.589844 C 199.378906 191.738281 198.980469 191.847656 198.578125 191.921875 C 198.171875 192 197.761719 192.035156 197.351562 192.035156 C 196.9375 192.035156 196.527344 192 196.121094 191.921875 C 195.71875 191.847656 195.320312 191.738281 194.9375 191.589844 C 194.550781 191.441406 194.183594 191.257812 193.832031 191.042969 C 193.480469 190.828125 193.152344 190.582031 192.84375 190.308594 C 192.539062 190.03125 192.257812 189.730469 192.007812 189.402344 C 191.757812 189.074219 191.535156 188.726562 191.347656 188.359375 C 191.160156 187.992188 191.007812 187.609375 190.890625 187.214844 C 190.773438 186.820312 190.691406 186.414062 190.648438 186.003906 C 190.691406 185.59375 190.773438 185.191406 190.890625 184.796875 C 191.007812 184.398438 191.160156 184.019531 191.347656 183.652344 C 191.535156 183.285156 191.757812 182.9375 192.007812 182.609375 C 192.257812 182.28125 192.539062 181.980469 192.84375 181.703125 C 193.152344 181.425781 193.480469 181.183594 193.832031 180.964844 C 194.183594 180.75 194.550781 180.570312 194.9375 180.421875 C 195.320312 180.273438 195.71875 180.160156 196.121094 180.085938 C 196.527344 180.011719 196.9375 179.972656 197.351562 179.972656 C 197.761719 179.972656 198.171875 180.011719 198.578125 180.085938 C 198.980469 180.160156 199.378906 180.273438 199.761719 180.421875 C 200.148438 180.570312 200.515625 180.75 200.867188 180.964844 C 201.21875 181.183594 201.546875 181.425781 201.855469 181.703125 C 202.160156 181.980469 202.441406 182.28125 202.691406 182.609375 C 202.941406 182.9375 203.164062 183.285156 203.351562 183.652344 C 203.539062 184.019531 203.691406 184.398438 203.808594 184.796875 C 203.925781 185.191406 204.007812 185.59375 204.050781 186.003906 Z M 204.050781 186.003906 "/>
<path style=" stroke:none;fill-rule:nonzero;fill:rgb(100%,59.609985%,50.19989%);fill-opacity:1;" d="M 293.351562 209.027344 C 287.832031 198.585938 278.113281 191.765625 272.609375 188.769531 C 271.144531 187.972656 269.824219 190.214844 271.296875 191.015625 C 276.636719 193.914062 277.609375 201.433594 281.789062 205.84375 C 282.945312 207.050781 294.132812 210.511719 293.351562 209.027344 Z M 293.351562 209.027344 "/>
<path style=" stroke:none;fill-rule:nonzero;fill:rgb(45.098877%,23.919678%,0%);fill-opacity:1;" d="M 148.53125 165.589844 C 153.332031 168.230469 159.210938 167.105469 164.683594 166.726562 C 171.183594 166.273438 177.699219 167.019531 184.195312 167.515625 C 191.882812 168.105469 199.589844 168.398438 207.296875 168.609375 C 210.140625 168.683594 213.09375 168.730469 215.675781 167.546875 C 216.398438 167.21875 217.109375 166.761719 217.472656 166.054688 C 218.058594 164.933594 217.570312 163.539062 216.847656 162.5 C 213.433594 157.601562 205.910156 157.382812 201.992188 152.875 C 201.773438 152.554688 201.480469 152.328125 201.113281 152.199219 C 200.753906 152.164062 200.417969 152.238281 200.105469 152.421875 C 192.765625 155.742188 184.445312 156.277344 176.523438 155.480469 C 174.300781 155.257812 152.15625 150.402344 152.4375 149.632812 C 151.535156 152.125 153.785156 156.765625 155.007812 158.960938 L 148.460938 158.558594 L 148.503906 165.578125 Z M 148.53125 165.589844 "/>
<path style=" stroke:none;fill-rule:nonzero;fill:rgb(90.979004%,90.979004%,90.979004%);fill-opacity:1;" d="M 278.683594 199.421875 C 278.617188 196.738281 278.570312 194.0625 278.574219 191.402344 C 278.597656 179.652344 279.664062 168.207031 284.925781 157.816406 C 249.605469 161.351562 214.21875 162.253906 178.761719 160.53125 C 158.445312 159.554688 138.191406 157.707031 117.992188 154.984375 C 117.019531 154.851562 115.355469 154.496094 113.515625 154.179688 C 109.855469 153.546875 105.429688 153.0625 103.933594 154.765625 C 101.296875 157.761719 105.625 166.445312 106.6875 169.554688 C 110.324219 180.230469 111.914062 191.265625 112.207031 202.476562 C 112.707031 221.390625 109.519531 240.753906 106.292969 259.523438 L 108.367188 259.933594 L 110.386719 260.324219 C 112.824219 260.796875 115.285156 261.253906 117.769531 261.699219 L 119.429688 261.992188 C 121.148438 262.300781 122.878906 262.597656 124.617188 262.890625 L 126.121094 263.140625 C 131.121094 263.976562 136.171875 264.742188 141.277344 265.441406 L 141.710938 265.5 L 143.140625 265.695312 C 145.4375 266.003906 147.738281 266.296875 150.042969 266.574219 C 153.507812 266.992188 156.984375 267.367188 160.472656 267.707031 C 165.628906 268.210938 170.804688 268.621094 176 268.9375 C 179.621094 269.15625 183.242188 269.328125 186.863281 269.445312 C 203.503906 269.992188 220.09375 269.421875 236.105469 267.320312 C 240.605469 266.734375 245.0625 266.015625 249.464844 265.167969 C 253.226562 264.445312 256.945312 263.625 260.617188 262.710938 C 265.996094 261.367188 271.257812 259.796875 276.410156 258.003906 C 275.191406 254.015625 276.15625 250.109375 277.503906 246.191406 C 278.066406 244.539062 278.699219 242.886719 279.261719 241.222656 C 282.625 231.328125 281 221.539062 279.714844 211.3125 C 279.167969 207.367188 278.824219 203.40625 278.683594 199.421875 Z M 197.347656 193.613281 C 196.90625 193.617188 196.464844 193.570312 196.03125 193.484375 C 195.597656 193.398438 195.171875 193.269531 194.761719 193.101562 C 194.355469 192.929688 193.964844 192.722656 193.59375 192.476562 C 193.226562 192.230469 192.886719 191.949219 192.570312 191.632812 C 192.257812 191.320312 191.976562 190.980469 191.730469 190.609375 C 191.484375 190.238281 191.277344 189.851562 191.105469 189.4375 C 190.9375 189.027344 190.808594 188.605469 190.722656 188.171875 C 190.636719 187.734375 190.59375 187.292969 190.59375 186.851562 C 190.59375 186.566406 190.613281 186.285156 190.648438 186.003906 C 190.691406 185.59375 190.773438 185.191406 190.890625 184.796875 C 191.007812 184.398438 191.160156 184.019531 191.347656 183.652344 C 191.535156 183.285156 191.757812 182.9375 192.007812 182.609375 C 192.257812 182.28125 192.539062 181.980469 192.84375 181.703125 C 193.152344 181.425781 193.480469 181.183594 193.832031 180.964844 C 194.183594 180.75 194.550781 180.570312 194.9375 180.421875 C 195.320312 180.273438 195.71875 180.160156 196.121094 180.085938 C 196.527344 180.011719 196.9375 179.972656 197.351562 179.972656 C 197.761719 179.972656 198.171875 180.011719 198.578125 180.085938 C 198.980469 180.160156 199.378906 180.273438 199.761719 180.421875 C 200.148438 180.570312 200.515625 180.75 200.867188 180.964844 C 201.21875 181.183594 201.546875 181.425781 201.855469 181.703125 C 202.160156 181.980469 202.441406 182.28125 202.691406 182.609375 C 202.941406 182.9375 203.164062 183.285156 203.351562 183.652344 C 203.539062 184.019531 203.691406 184.398438 203.808594 184.796875 C 203.925781 185.191406 204.007812 185.59375 204.050781 186.003906 C 204.085938 186.285156 204.105469 186.566406 204.105469 186.851562 C 204.105469 187.292969 204.0625 187.734375 203.976562 188.171875 C 203.890625 188.605469 203.761719 189.027344 203.59375 189.4375 C 203.421875 189.851562 203.214844 190.238281 202.96875 190.609375 C 202.722656 190.980469 202.441406 191.320312 202.128906 191.632812 C 201.8125 191.949219 201.472656 192.230469 201.105469 192.476562 C 200.734375 192.722656 200.34375 192.929688 199.9375 193.101562 C 199.527344 193.269531 199.101562 193.398438 198.667969 193.484375 C 198.234375 193.570312 197.792969 193.617188 197.347656 193.613281 Z M 197.347656 193.613281 "/>
<path style=" stroke:none;fill-rule:nonzero;fill:rgb(85.099792%,85.099792%,85.099792%);fill-opacity:1;" d="M 236.097656 267.316406 C 220.082031 269.421875 203.492188 269.992188 186.855469 269.445312 C 183.234375 269.324219 179.609375 269.15625 175.984375 268.933594 C 170.800781 268.621094 165.652344 268.207031 160.457031 267.703125 C 157.078125 267.363281 153.496094 266.984375 150.03125 266.570312 C 147.726562 266.296875 145.425781 266.003906 143.136719 265.691406 L 141.703125 265.5 L 141.273438 265.441406 C 136.175781 264.738281 131.121094 263.972656 126.117188 263.140625 L 124.613281 262.886719 C 122.875 262.597656 121.148438 262.296875 119.425781 261.988281 L 117.765625 261.695312 C 115.285156 261.253906 112.824219 260.792969 110.382812 260.316406 L 108.363281 259.925781 L 106.289062 259.511719 C 109.511719 240.738281 112.703125 221.375 112.203125 202.464844 L 120.453125 199.191406 C 118.847656 198.152344 120.382812 195.566406 122.082031 196.550781 C 126.28125 198.964844 130.273438 201.679688 134.058594 204.703125 C 136.695312 206.847656 139.8125 208.285156 142.964844 209.65625 C 146.550781 211.21875 149.703125 211.394531 153.511719 211.394531 L 160.664062 211.394531 C 160.976562 211.398438 161.289062 211.433594 161.59375 211.5 C 161.902344 211.5625 162.203125 211.65625 162.492188 211.78125 C 162.78125 211.902344 163.054688 212.054688 163.316406 212.230469 C 163.574219 212.40625 163.816406 212.605469 164.035156 212.832031 C 164.257812 213.054688 164.457031 213.296875 164.628906 213.558594 C 164.804688 213.820312 164.953125 214.097656 165.074219 214.386719 C 165.195312 214.675781 165.285156 214.976562 165.347656 215.285156 C 165.414062 215.59375 165.445312 215.902344 165.449219 216.21875 C 165.488281 220.078125 165.53125 223.976562 165.570312 227.832031 C 165.613281 231.976562 164.132812 237.355469 166.785156 241.109375 C 169.695312 245.214844 176.773438 246.300781 181.371094 247.058594 C 188.382812 248.21875 195.046875 246.871094 201.476562 244.070312 C 207.65625 241.378906 214.492188 238.773438 221.375 240.109375 C 228.761719 241.546875 233.761719 248.046875 235.589844 255.042969 C 236.640625 259.101562 236.644531 263.222656 236.097656 267.316406 Z M 236.097656 267.316406 "/>
<path style=" stroke:none;fill-rule:nonzero;fill:rgb(100%,100%,100%);fill-opacity:1;" d="M 278.683594 199.421875 C 278.824219 203.40625 279.167969 207.375 279.710938 211.324219 L 254.84375 200.761719 C 251.855469 201.660156 248.804688 202.269531 245.699219 202.589844 C 235.832031 203.667969 220.445312 202.589844 212.28125 187.835938 C 199.648438 165.015625 189.765625 160.890625 180.152344 160.890625 C 179.652344 160.914062 179.1875 160.796875 178.761719 160.535156 C 214.21875 162.257812 249.605469 161.351562 284.925781 157.820312 C 279.652344 168.210938 278.597656 179.652344 278.574219 191.40625 C 278.574219 192.125 278.574219 192.84375 278.574219 193.5625 C 278.574219 194.214844 278.582031 194.863281 278.597656 195.511719 C 278.597656 196.164062 278.617188 196.816406 278.632812 197.46875 C 278.648438 198.117188 278.667969 198.761719 278.683594 199.421875 Z M 278.683594 199.421875 "/>
<path style=" stroke:none;fill-rule:nonzero;fill:rgb(90.979004%,90.979004%,90.979004%);fill-opacity:1;" d="M 204.105469 186.851562 C 204.097656 187.289062 204.046875 187.722656 203.953125 188.148438 C 203.859375 188.578125 203.726562 188.992188 203.550781 189.394531 C 203.378906 189.796875 203.167969 190.179688 202.917969 190.539062 C 202.671875 190.902344 202.390625 191.234375 202.078125 191.542969 C 201.765625 191.847656 201.425781 192.121094 201.0625 192.363281 C 200.695312 192.605469 200.308594 192.808594 199.902344 192.972656 C 199.5 193.136719 199.082031 193.261719 198.652344 193.347656 C 198.222656 193.433594 197.789062 193.472656 197.351562 193.472656 C 196.914062 193.472656 196.480469 193.433594 196.050781 193.347656 C 195.621094 193.261719 195.203125 193.136719 194.796875 192.972656 C 194.394531 192.808594 194.007812 192.605469 193.640625 192.363281 C 193.277344 192.121094 192.9375 191.847656 192.625 191.542969 C 192.3125 191.234375 192.03125 190.902344 191.78125 190.539062 C 191.535156 190.179688 191.324219 189.796875 191.148438 189.394531 C 190.976562 188.992188 190.84375 188.578125 190.75 188.148438 C 190.65625 187.722656 190.605469 187.289062 190.597656 186.851562 C 190.597656 186.566406 190.613281 186.285156 190.652344 186.003906 C 190.695312 186.414062 190.777344 186.820312 190.894531 187.214844 C 191.011719 187.609375 191.164062 187.992188 191.351562 188.359375 C 191.539062 188.726562 191.757812 189.074219 192.011719 189.402344 C 192.261719 189.730469 192.539062 190.03125 192.847656 190.308594 C 193.152344 190.582031 193.484375 190.828125 193.835938 191.042969 C 194.1875 191.257812 194.554688 191.441406 194.941406 191.589844 C 195.324219 191.738281 195.71875 191.847656 196.125 191.921875 C 196.53125 192 196.941406 192.035156 197.351562 192.035156 C 197.765625 192.035156 198.171875 192 198.578125 191.921875 C 198.984375 191.847656 199.378906 191.738281 199.765625 191.589844 C 200.148438 191.441406 200.519531 191.257812 200.871094 191.042969 C 201.222656 190.828125 201.550781 190.582031 201.859375 190.308594 C 202.164062 190.03125 202.441406 189.730469 202.695312 189.402344 C 202.945312 189.074219 203.164062 188.726562 203.351562 188.359375 C 203.539062 187.992188 203.695312 187.609375 203.8125 187.214844 C 203.929688 186.820312 204.007812 186.414062 204.054688 186.003906 C 204.089844 186.285156 204.105469 186.566406 204.105469 186.851562 Z M 204.105469 186.851562 "/>
<path style=" stroke:none;fill-rule:nonzero;fill:rgb(96.078491%,52.549744%,41.958618%);fill-opacity:1;" d="M 177.710938 186.203125 C 177.546875 186.957031 177.261719 187.664062 176.859375 188.320312 C 176.453125 188.980469 175.949219 189.550781 175.351562 190.035156 C 174.75 190.519531 174.085938 190.890625 173.359375 191.148438 C 172.628906 191.40625 171.878906 191.535156 171.109375 191.535156 C 170.335938 191.535156 169.585938 191.40625 168.859375 191.148438 C 168.132812 190.890625 167.46875 190.519531 166.867188 190.035156 C 166.265625 189.550781 165.765625 188.980469 165.359375 188.320312 C 164.953125 187.664062 164.671875 186.957031 164.507812 186.203125 C 164.671875 185.445312 164.953125 184.738281 165.359375 184.082031 C 165.765625 183.425781 166.265625 182.851562 166.867188 182.367188 C 167.46875 181.882812 168.132812 181.511719 168.859375 181.253906 C 169.585938 180.996094 170.335938 180.867188 171.109375 180.867188 C 171.878906 180.867188 172.628906 180.996094 173.359375 181.253906 C 174.085938 181.511719 174.75 181.882812 175.351562 182.367188 C 175.949219 182.851562 176.453125 183.425781 176.859375 184.082031 C 177.261719 184.738281 177.546875 185.445312 177.710938 186.203125 Z M 177.710938 186.203125 "/>
<path style=" stroke:none;fill-rule:nonzero;fill:rgb(85.099792%,85.099792%,85.099792%);fill-opacity:1;" d="M 276.398438 258 C 271.253906 259.800781 265.988281 261.367188 260.605469 262.707031 C 260.898438 256.839844 261.074219 249.96875 261.074219 245.65625 C 261.074219 228.105469 242.152344 221.871094 246.71875 205.6875 C 247.136719 204.167969 247.769531 202.742188 248.609375 201.40625 C 251.097656 201.152344 253.539062 200.660156 255.933594 199.941406 L 275.859375 208.410156 C 276.890625 216.605469 278.203125 224.453125 275.496094 232.382812 C 274.808594 234.394531 275.925781 240.09375 277.492188 246.1875 C 276.144531 250.109375 275.183594 254.011719 276.398438 258 Z M 276.398438 258 "/>
<path style=" stroke:none;fill-rule:nonzero;fill:rgb(90.979004%,90.979004%,90.979004%);fill-opacity:1;" d="M 280.492188 209.484375 C 277.28125 209.625 267.546875 204.878906 264.515625 203.59375 C 263.117188 203.003906 257.40625 199.457031 255.929688 199.941406 C 253.535156 200.664062 251.09375 201.152344 248.605469 201.410156 C 255.34375 190.761719 277.078125 191.835938 279.203125 192.054688 C 279.210938 192.058594 280.550781 208.117188 280.492188 209.484375 Z M 280.492188 209.484375 "/>
<path style=" stroke:none;fill-rule:nonzero;fill:rgb(100%,59.609985%,50.19989%);fill-opacity:1;" d="M 168.75 183.859375 L 168.457031 189.582031 C 168.378906 191.253906 170.976562 191.25 171.054688 189.582031 L 171.328125 183.859375 C 171.417969 182.1875 168.824219 182.1875 168.75 183.859375 Z M 168.75 183.859375 "/>
<path style=" stroke:none;fill-rule:nonzero;fill:rgb(100%,59.609985%,50.19989%);fill-opacity:1;" d="M 196.140625 182.703125 C 196.085938 184.914062 196.03125 187.125 195.976562 189.335938 C 195.933594 191.011719 198.53125 191.011719 198.574219 189.335938 L 198.742188 182.703125 C 198.78125 181.011719 196.183594 181.015625 196.140625 182.703125 Z M 196.140625 182.703125 "/>
<path style=" stroke:none;fill-rule:nonzero;fill:rgb(90.979004%,90.979004%,90.979004%);fill-opacity:1;" d="M 140.277344 205.796875 L 134.710938 203.265625 C 134.707031 203.179688 134.695312 203.09375 134.675781 203.007812 C 134.148438 200.449219 133.359375 197.703125 131.375 195.875 C 129.519531 194.167969 126.6875 193.304688 124.34375 194.503906 C 122.417969 195.488281 121.257812 197.855469 122.175781 199.847656 L 111.332031 209.957031 C 111.238281 216.503906 110.910156 222.753906 110.496094 228.265625 L 111.496094 229.769531 C 116.890625 229.769531 121.457031 226.292969 123.945312 221.65625 C 125.753906 218.304688 126.53125 214.582031 126.921875 210.824219 C 127.292969 207.265625 126.441406 202.441406 131.515625 204.664062 C 134.015625 205.753906 139.445312 208.273438 141.929688 209.40625 C 143.433594 210.085938 141.792969 206.488281 140.277344 205.796875 Z M 140.277344 205.796875 "/>
<path style=" stroke:none;fill-rule:nonzero;fill:rgb(100%,59.609985%,50.19989%);fill-opacity:1;" d="M 296.347656 241.609375 C 296.167969 241.964844 295.992188 242.324219 295.804688 242.679688 C 291.960938 249.496094 284.996094 254.488281 276.121094 258.058594 C 275.601562 254.710938 275.105469 251.265625 275.035156 249.933594 C 274.65625 242.664062 273.429688 238.097656 269.707031 232.242188 C 266.15625 226.652344 260.171875 223.820312 255.429688 219.476562 C 252.871094 217.128906 248.105469 211.347656 248.691406 207.492188 C 249.457031 202.613281 255.246094 200.238281 259.34375 198.867188 C 275.054688 193.585938 293.058594 202.476562 297.433594 218.683594 C 299.472656 226.238281 299.929688 234.417969 296.347656 241.609375 Z M 296.347656 241.609375 "/>
<path style=" stroke:none;fill-rule:nonzero;fill:rgb(100%,59.609985%,50.19989%);fill-opacity:1;" d="M 113.691406 222.425781 C 112.859375 222.847656 112.085938 223.359375 111.378906 223.960938 C 105.90625 228.597656 105.167969 237.726562 108.957031 243.988281 C 108.199219 248.921875 107.289062 254.105469 106.222656 259.535156 C 96.363281 257.742188 82.722656 251.878906 79.652344 233.425781 C 75.632812 209.28125 93.570312 194.792969 111.980469 195.15625 C 116.292969 195.238281 120.433594 196.121094 124.40625 197.796875 C 124.40625 197.796875 125.296875 216.550781 113.691406 222.425781 Z M 113.691406 222.425781 "/>
<path style=" stroke:none;fill-rule:nonzero;fill:rgb(90.979004%,90.979004%,90.979004%);fill-opacity:1;" d="M 177.863281 187.628906 C 177.875 188.082031 177.839844 188.527344 177.757812 188.96875 C 177.679688 189.414062 177.558594 189.84375 177.390625 190.261719 C 177.226562 190.679688 177.019531 191.078125 176.777344 191.457031 C 176.53125 191.832031 176.25 192.183594 175.9375 192.503906 C 175.621094 192.828125 175.28125 193.113281 174.90625 193.367188 C 174.535156 193.621094 174.144531 193.832031 173.726562 194.007812 C 173.3125 194.183594 172.886719 194.3125 172.445312 194.402344 C 172.003906 194.492188 171.558594 194.535156 171.109375 194.535156 C 170.660156 194.535156 170.214844 194.492188 169.773438 194.402344 C 169.332031 194.3125 168.90625 194.183594 168.492188 194.007812 C 168.078125 193.832031 167.683594 193.621094 167.3125 193.367188 C 166.941406 193.113281 166.597656 192.828125 166.28125 192.503906 C 165.96875 192.183594 165.6875 191.832031 165.445312 191.457031 C 165.199219 191.078125 164.992188 190.679688 164.828125 190.261719 C 164.664062 189.84375 164.539062 189.414062 164.460938 188.96875 C 164.378906 188.527344 164.34375 188.082031 164.355469 187.628906 C 164.355469 187.148438 164.40625 186.671875 164.507812 186.199219 C 164.671875 186.953125 164.953125 187.660156 165.359375 188.316406 C 165.765625 188.976562 166.265625 189.546875 166.867188 190.03125 C 167.46875 190.519531 168.132812 190.890625 168.859375 191.148438 C 169.585938 191.402344 170.335938 191.53125 171.109375 191.53125 C 171.878906 191.53125 172.628906 191.402344 173.359375 191.148438 C 174.085938 190.890625 174.75 190.519531 175.351562 190.03125 C 175.949219 189.546875 176.453125 188.976562 176.859375 188.316406 C 177.261719 187.660156 177.546875 186.953125 177.710938 186.199219 C 177.8125 186.671875 177.867188 187.148438 177.863281 187.628906 Z M 177.863281 187.628906 "/>
<path style=" stroke:none;fill-rule:nonzero;fill:rgb(13.729858%,22.349548%,25.099182%);fill-opacity:1;" d="M 255.90625 200.011719 C 257.191406 199.148438 258.578125 198.503906 260.0625 198.070312 C 261.523438 197.636719 263.007812 197.335938 264.523438 197.167969 C 266.027344 196.992188 267.535156 196.90625 269.046875 196.910156 C 270.5625 196.90625 272.074219 196.984375 273.578125 197.148438 L 273.652344 197.160156 L 273.667969 197.160156 C 274.464844 197.457031 275.28125 197.5 276.109375 197.300781 C 276.839844 197.078125 277.378906 196.457031 277.726562 195.6875 C 278.0625 194.871094 278.273438 194.019531 278.355469 193.136719 C 278.453125 192.226562 278.5 191.3125 278.496094 190.398438 C 278.496094 189.472656 278.464844 188.546875 278.445312 187.597656 L 278.445312 186.878906 C 278.445312 186.878906 278.445312 186.367188 278.472656 186.144531 C 278.5 185.683594 278.519531 185.222656 278.53125 184.761719 C 278.582031 182.910156 278.53125 181.035156 278.570312 179.132812 C 278.597656 178.183594 278.65625 177.226562 278.773438 176.269531 C 278.890625 175.316406 279.066406 174.382812 279.25 173.445312 C 279.644531 171.585938 280.140625 169.753906 280.734375 167.949219 C 281.941406 164.363281 283.351562 160.863281 284.972656 157.445312 L 285.65625 158.46875 L 262.648438 159.988281 C 254.980469 160.472656 247.3125 160.984375 239.640625 161.421875 C 231.96875 161.859375 224.292969 162.300781 216.617188 162.675781 L 210.855469 162.9375 C 208.9375 163.023438 207.015625 163.109375 205.09375 163.175781 C 203.171875 163.242188 201.25 163.324219 199.324219 163.375 C 198.359375 163.398438 197.402344 163.441406 196.433594 163.449219 L 193.539062 163.484375 L 193.4375 163.484375 C 192.070312 163.265625 190.710938 163.308594 189.363281 163.617188 C 188.703125 163.765625 188.078125 163.996094 187.480469 164.3125 C 186.886719 164.625 186.339844 165.015625 185.847656 165.472656 C 185.355469 165.933594 184.933594 166.453125 184.578125 167.023438 C 184.222656 167.597656 183.949219 168.207031 183.757812 168.855469 L 183.625 169.34375 L 183.558594 169.589844 L 183.515625 169.84375 L 183.425781 170.34375 C 183.398438 170.519531 183.378906 170.707031 183.351562 170.886719 L 183.058594 173.078125 L 180.832031 190.574219 L 179.71875 199.320312 L 179.164062 203.695312 L 178.871094 205.882812 L 178.660156 207.523438 L 178.625 208.035156 C 178.535156 209.441406 178.828125 210.761719 179.503906 212 C 179.589844 212.148438 179.683594 212.292969 179.777344 212.441406 L 179.914062 212.660156 C 179.964844 212.730469 180.019531 212.796875 180.070312 212.867188 L 180.390625 213.273438 L 180.75 213.644531 L 180.925781 213.832031 L 181.125 213.996094 C 181.253906 214.109375 181.382812 214.222656 181.519531 214.328125 C 181.800781 214.535156 182.09375 214.71875 182.398438 214.886719 C 183.003906 215.226562 183.644531 215.472656 184.324219 215.628906 L 184.832031 215.71875 C 184.917969 215.71875 185.003906 215.75 185.085938 215.757812 L 185.347656 215.773438 L 185.867188 215.804688 L 186.417969 215.804688 L 190.8125 215.835938 C 190.921875 215.835938 191.019531 215.875 191.097656 215.957031 C 191.175781 216.035156 191.214844 216.128906 191.214844 216.238281 C 191.214844 216.351562 191.175781 216.445312 191.097656 216.523438 C 191.019531 216.601562 190.921875 216.640625 190.8125 216.640625 L 186.417969 216.671875 L 185.867188 216.671875 L 185.28125 216.648438 L 184.988281 216.648438 C 184.890625 216.648438 184.796875 216.617188 184.695312 216.605469 L 184.109375 216.515625 C 183.34375 216.351562 182.617188 216.085938 181.925781 215.714844 C 181.582031 215.53125 181.253906 215.324219 180.9375 215.097656 C 180.78125 214.980469 180.644531 214.851562 180.480469 214.730469 L 180.257812 214.546875 L 180.046875 214.339844 L 179.636719 213.925781 L 179.273438 213.46875 C 179.210938 213.394531 179.148438 213.320312 179.089844 213.242188 L 178.929688 212.996094 C 178.824219 212.832031 178.710938 212.667969 178.617188 212.5 C 177.820312 211.101562 177.460938 209.601562 177.535156 207.992188 L 177.570312 207.40625 L 177.636719 206.859375 L 177.765625 205.761719 L 178.019531 203.574219 L 178.535156 199.195312 L 179.558594 190.433594 L 181.609375 172.914062 L 181.863281 170.726562 C 181.886719 170.542969 181.902344 170.367188 181.933594 170.175781 L 182.074219 169.296875 L 182.148438 169 L 182.296875 168.414062 C 182.523438 167.640625 182.847656 166.90625 183.269531 166.21875 C 183.6875 165.53125 184.191406 164.90625 184.777344 164.351562 C 185.363281 163.796875 186.011719 163.328125 186.722656 162.949219 C 187.433594 162.566406 188.179688 162.285156 188.96875 162.101562 C 190.515625 161.730469 192.078125 161.660156 193.65625 161.902344 L 193.542969 161.902344 L 196.40625 161.847656 C 197.359375 161.847656 198.320312 161.78125 199.277344 161.75 C 201.195312 161.683594 203.109375 161.601562 205.027344 161.507812 C 206.941406 161.417969 208.863281 161.328125 210.777344 161.214844 L 216.53125 160.921875 C 224.199219 160.53125 231.871094 160.113281 239.542969 159.667969 L 262.554688 158.386719 L 285.566406 157.046875 C 285.761719 157.035156 285.9375 157.09375 286.082031 157.226562 C 286.230469 157.359375 286.3125 157.523438 286.320312 157.722656 C 286.328125 157.84375 286.304688 157.957031 286.253906 158.066406 C 284.632812 161.421875 283.214844 164.863281 282 168.386719 C 281.40625 170.140625 280.910156 171.921875 280.511719 173.730469 C 280.324219 174.632812 280.152344 175.542969 280.035156 176.449219 C 279.914062 177.351562 279.851562 178.265625 279.820312 179.191406 C 279.753906 181.039062 279.800781 182.917969 279.734375 184.8125 C 279.71875 185.289062 279.695312 185.765625 279.660156 186.238281 C 279.644531 186.484375 279.636719 186.675781 279.632812 186.910156 C 279.628906 187.144531 279.632812 187.363281 279.632812 187.59375 C 279.632812 188.523438 279.671875 189.46875 279.660156 190.421875 C 279.664062 191.382812 279.605469 192.339844 279.488281 193.296875 C 279.382812 194.292969 279.128906 195.25 278.730469 196.171875 C 278.511719 196.660156 278.210938 197.097656 277.835938 197.480469 C 277.441406 197.890625 276.972656 198.175781 276.425781 198.339844 C 276.296875 198.382812 276.164062 198.414062 276.027344 198.433594 C 275.894531 198.464844 275.761719 198.484375 275.625 198.488281 C 275.488281 198.488281 275.359375 198.503906 275.222656 198.503906 L 274.832031 198.480469 C 274.703125 198.472656 274.574219 198.457031 274.449219 198.429688 L 274.070312 198.363281 C 273.824219 198.304688 273.589844 198.230469 273.34375 198.164062 L 273.4375 198.183594 C 271.976562 198.003906 270.511719 197.90625 269.039062 197.890625 C 267.566406 197.867188 266.09375 197.933594 264.625 198.082031 C 263.164062 198.226562 261.722656 198.5 260.308594 198.898438 C 258.902344 199.285156 257.582031 199.875 256.355469 200.671875 C 256.265625 200.722656 256.167969 200.734375 256.070312 200.710938 C 255.96875 200.6875 255.886719 200.628906 255.828125 200.542969 C 255.769531 200.457031 255.75 200.363281 255.765625 200.261719 C 255.78125 200.15625 255.828125 200.074219 255.910156 200.007812 Z M 255.90625 200.011719 "/>
<path style=" stroke:none;fill-rule:nonzero;fill:rgb(13.729858%,22.349548%,25.099182%);fill-opacity:1;" d="M 275.402344 257.898438 C 275.148438 255.714844 275 253.519531 274.816406 251.34375 C 274.632812 249.167969 274.445312 247 274.085938 244.890625 C 273.773438 242.765625 273.234375 240.703125 272.472656 238.695312 L 272.335938 238.324219 C 272.289062 238.199219 272.226562 238.082031 272.171875 237.960938 L 271.839844 237.238281 L 271.511719 236.515625 C 271.394531 236.277344 271.253906 236.054688 271.125 235.824219 L 270.714844 235.136719 C 270.589844 234.902344 270.453125 234.675781 270.304688 234.457031 L 269.425781 233.144531 C 269.355469 233.035156 269.28125 232.921875 269.203125 232.8125 L 268.957031 232.507812 L 268.457031 231.886719 C 268.140625 231.460938 267.800781 231.054688 267.441406 230.664062 C 267.082031 230.273438 266.710938 229.890625 266.355469 229.492188 L 266.085938 229.195312 L 265.792969 228.921875 L 265.207031 228.371094 C 264.816406 228.007812 264.433594 227.636719 264.035156 227.277344 C 263.640625 226.914062 263.21875 226.574219 262.800781 226.230469 C 261.964844 225.542969 261.113281 224.859375 260.253906 224.179688 C 258.539062 222.824219 256.800781 221.457031 255.171875 219.949219 C 254.351562 219.195312 253.570312 218.402344 252.828125 217.566406 C 252.089844 216.730469 251.410156 215.84375 250.789062 214.914062 C 250.726562 214.824219 250.703125 214.722656 250.722656 214.613281 C 250.742188 214.503906 250.796875 214.417969 250.886719 214.351562 C 250.976562 214.289062 251.074219 214.265625 251.183594 214.285156 C 251.292969 214.300781 251.382812 214.355469 251.445312 214.445312 C 252.09375 215.304688 252.792969 216.117188 253.546875 216.882812 C 254.3125 217.636719 255.097656 218.371094 255.929688 219.0625 C 257.589844 220.441406 259.34375 221.722656 261.113281 223.011719 C 261.992188 223.65625 262.890625 224.300781 263.753906 224.980469 C 264.191406 225.3125 264.632812 225.664062 265.058594 226.007812 C 265.488281 226.355469 265.898438 226.746094 266.320312 227.113281 C 268.03125 228.59375 269.539062 230.253906 270.84375 232.097656 L 271.78125 233.515625 C 271.933594 233.753906 272.074219 234 272.199219 234.253906 L 272.597656 235.003906 C 272.726562 235.257812 272.871094 235.5 272.992188 235.761719 L 273.324219 236.539062 L 273.660156 237.320312 C 273.710938 237.453125 273.773438 237.578125 273.820312 237.710938 L 273.953125 238.113281 C 274.710938 240.234375 275.222656 242.414062 275.488281 244.652344 C 276.0625 249.078125 275.957031 253.453125 276.179688 257.820312 C 276.179688 257.925781 276.140625 258.015625 276.070312 258.09375 C 276 258.167969 275.914062 258.210938 275.8125 258.21875 C 275.707031 258.230469 275.613281 258.203125 275.53125 258.136719 C 275.449219 258.074219 275.398438 257.992188 275.382812 257.886719 Z M 275.402344 257.898438 "/>
<path style=" stroke:none;fill-rule:nonzero;fill:rgb(13.729858%,22.349548%,25.099182%);fill-opacity:1;" d="M 112.492188 154.910156 C 115.230469 155.183594 117.964844 155.433594 120.699219 155.660156 C 123.433594 155.882812 126.167969 156.097656 128.902344 156.300781 L 137.125 156.886719 L 145.355469 157.429688 L 147.40625 157.570312 L 149.457031 157.722656 C 150.828125 157.816406 152.199219 157.929688 153.558594 158.042969 C 156.296875 158.265625 159.039062 158.445312 161.78125 158.660156 C 167.265625 159.070312 172.746094 159.507812 178.226562 159.976562 C 178.339844 159.984375 178.429688 160.027344 178.503906 160.113281 C 178.578125 160.195312 178.613281 160.292969 178.605469 160.402344 C 178.601562 160.515625 178.554688 160.605469 178.472656 160.679688 C 178.390625 160.753906 178.292969 160.789062 178.179688 160.78125 C 172.683594 160.601562 167.183594 160.378906 161.6875 160.125 C 156.1875 159.882812 150.691406 159.628906 145.203125 159.203125 C 142.457031 159 139.714844 158.75 136.972656 158.507812 C 134.230469 158.265625 131.492188 158.007812 128.753906 157.726562 C 126.011719 157.445312 123.277344 157.140625 120.546875 156.816406 C 117.820312 156.496094 115.082031 156.128906 112.34375 155.703125 C 112.242188 155.683594 112.160156 155.628906 112.097656 155.542969 C 112.039062 155.457031 112.015625 155.363281 112.027344 155.257812 C 112.039062 155.152344 112.085938 155.066406 112.167969 155 C 112.25 154.933594 112.34375 154.902344 112.445312 154.910156 Z M 112.492188 154.910156 "/>
<path style=" stroke:none;fill-rule:nonzero;fill:rgb(13.729858%,22.349548%,25.099182%);fill-opacity:1;" d="M 97.929688 149.550781 C 101.039062 152.597656 103.320312 156.375 105.066406 160.3125 C 106.769531 164.285156 108.089844 168.382812 109.023438 172.605469 C 109.511719 174.699219 109.902344 176.8125 110.257812 178.933594 C 110.617188 181.054688 110.902344 183.183594 111.136719 185.316406 C 111.371094 187.449219 111.585938 189.585938 111.742188 191.726562 C 111.828125 192.796875 111.886719 193.863281 111.953125 194.933594 C 112.023438 196.007812 112.0625 197.078125 112.097656 198.164062 C 112.132812 199.246094 112.167969 200.304688 112.199219 201.390625 C 112.226562 202.476562 112.230469 203.535156 112.230469 204.617188 C 112.246094 206.757812 112.207031 208.902344 112.152344 211.042969 C 112.035156 215.328125 111.824219 219.601562 111.511719 223.871094 C 111.203125 228.140625 110.8125 232.402344 110.339844 236.65625 C 109.871094 240.910156 109.316406 245.144531 108.625 249.375 C 108.605469 249.480469 108.550781 249.566406 108.464844 249.628906 C 108.375 249.691406 108.277344 249.714844 108.171875 249.699219 C 108.066406 249.683594 107.976562 249.632812 107.910156 249.550781 C 107.847656 249.464844 107.816406 249.367188 107.828125 249.261719 C 108.882812 240.808594 109.632812 232.300781 110.0625 223.789062 C 110.269531 219.535156 110.414062 215.28125 110.457031 211.019531 C 110.5 206.757812 110.457031 202.511719 110.324219 198.257812 C 110.046875 189.75 109.355469 181.261719 107.613281 172.960938 C 106.789062 168.789062 105.585938 164.730469 103.996094 160.789062 C 102.394531 156.894531 100.289062 153.160156 97.371094 150.132812 C 97.296875 150.054688 97.265625 149.960938 97.265625 149.851562 C 97.269531 149.746094 97.308594 149.65625 97.386719 149.578125 C 97.460938 149.503906 97.550781 149.464844 97.660156 149.460938 C 97.765625 149.460938 97.859375 149.496094 97.9375 149.566406 Z M 97.929688 149.550781 "/>
<path style=" stroke:none;fill-rule:nonzero;fill:rgb(13.729858%,22.349548%,25.099182%);fill-opacity:1;" d="M 114.382812 162.105469 C 114.734375 162.519531 115.046875 162.960938 115.324219 163.429688 C 115.617188 163.878906 115.859375 164.34375 116.105469 164.808594 C 116.597656 165.738281 117.039062 166.6875 117.460938 167.644531 C 118.300781 169.558594 119.046875 171.511719 119.738281 173.480469 C 121.09375 177.4375 122.214844 181.457031 123.097656 185.542969 C 123.992188 189.640625 124.574219 193.789062 124.835938 197.976562 C 124.957031 200.082031 124.957031 202.191406 124.835938 204.296875 C 124.78125 205.351562 124.664062 206.410156 124.519531 207.460938 C 124.375 208.515625 124.160156 209.5625 123.90625 210.601562 C 123.640625 211.644531 123.316406 212.667969 122.929688 213.675781 C 122.527344 214.6875 122.046875 215.65625 121.484375 216.589844 C 120.34375 218.515625 118.847656 220.101562 116.996094 221.351562 C 116.535156 221.65625 116.058594 221.929688 115.566406 222.179688 L 114.203125 222.875 C 113.328125 223.363281 112.492188 223.902344 111.6875 224.5 C 110.074219 225.722656 108.582031 227.085938 107.21875 228.585938 C 104.46875 231.644531 102.125 234.984375 100.1875 238.609375 C 99.210938 240.414062 98.351562 242.273438 97.613281 244.183594 C 97.242188 245.136719 96.925781 246.105469 96.664062 247.09375 C 96.394531 248.0625 96.234375 249.050781 96.183594 250.058594 C 96.183594 250.167969 96.144531 250.265625 96.066406 250.34375 C 95.988281 250.421875 95.890625 250.460938 95.78125 250.460938 C 95.671875 250.460938 95.574219 250.421875 95.496094 250.34375 C 95.417969 250.265625 95.378906 250.167969 95.378906 250.058594 C 95.394531 248.984375 95.53125 247.921875 95.785156 246.878906 C 96.019531 245.847656 96.3125 244.835938 96.664062 243.84375 C 97.003906 242.847656 97.390625 241.867188 97.8125 240.910156 C 98.234375 239.949219 98.691406 239 99.15625 238.0625 C 101.0625 234.292969 103.394531 230.808594 106.152344 227.609375 C 106.503906 227.21875 106.847656 226.816406 107.21875 226.4375 L 107.769531 225.851562 L 108.34375 225.296875 C 108.71875 224.921875 109.125 224.578125 109.515625 224.214844 C 109.902344 223.855469 110.324219 223.527344 110.757812 223.207031 C 111.609375 222.550781 112.5 221.953125 113.433594 221.414062 L 114.824219 220.675781 C 115.253906 220.449219 115.667969 220.199219 116.070312 219.925781 C 117.6875 218.785156 118.992188 217.359375 119.992188 215.652344 C 120.992188 213.917969 121.730469 212.082031 122.210938 210.140625 C 123.1875 206.234375 123.382812 202.117188 123.234375 198.03125 C 123.027344 193.921875 122.519531 189.847656 121.710938 185.808594 C 120.925781 181.757812 119.90625 177.761719 118.648438 173.832031 C 118.019531 171.867188 117.347656 169.917969 116.574219 168.007812 C 116.1875 167.054688 115.78125 166.109375 115.332031 165.191406 C 115.109375 164.734375 114.875 164.277344 114.621094 163.839844 C 114.382812 163.40625 114.105469 162.996094 113.796875 162.605469 C 113.738281 162.519531 113.710938 162.425781 113.726562 162.324219 C 113.738281 162.21875 113.785156 162.132812 113.863281 162.066406 C 113.941406 161.996094 114.035156 161.964844 114.140625 161.96875 C 114.246094 161.972656 114.332031 162.011719 114.40625 162.085938 Z M 114.382812 162.105469 "/>
<path style=" stroke:none;fill-rule:nonzero;fill:rgb(13.729858%,22.349548%,25.099182%);fill-opacity:1;" d="M 197.363281 183.46875 C 197.398438 184.140625 197.429688 184.8125 197.457031 185.484375 L 197.480469 185.992188 C 197.480469 186.15625 197.5 186.308594 197.515625 186.464844 C 197.546875 186.773438 197.597656 187.082031 197.667969 187.382812 C 197.777344 187.957031 198.011719 188.476562 198.363281 188.941406 C 198.507812 189.128906 198.691406 189.269531 198.90625 189.367188 C 199.09375 189.449219 199.289062 189.464844 199.492188 189.421875 C 199.980469 189.261719 200.378906 188.980469 200.6875 188.570312 C 200.878906 188.34375 201.054688 188.105469 201.210938 187.851562 C 201.289062 187.734375 201.359375 187.609375 201.425781 187.484375 C 201.484375 187.363281 201.539062 187.242188 201.582031 187.117188 C 201.671875 186.863281 201.730469 186.605469 201.753906 186.339844 C 201.761719 186.207031 201.761719 186.074219 201.753906 185.941406 L 201.753906 185.742188 L 201.726562 185.519531 C 201.65625 184.925781 201.515625 184.347656 201.304688 183.789062 C 201.101562 183.265625 200.816406 182.792969 200.445312 182.367188 C 200.074219 181.960938 199.632812 181.648438 199.125 181.429688 L 198.933594 181.34375 C 198.867188 181.316406 198.800781 181.300781 198.730469 181.277344 C 198.59375 181.242188 198.460938 181.1875 198.316406 181.15625 C 198.027344 181.09375 197.734375 181.050781 197.4375 181.027344 C 196.824219 180.964844 196.214844 180.976562 195.601562 181.058594 C 194.375 181.191406 193.332031 181.707031 192.484375 182.609375 C 192.074219 183.0625 191.75 183.578125 191.519531 184.144531 C 191.277344 184.722656 191.125 185.320312 191.0625 185.941406 L 191.0625 185.972656 C 191.050781 186.078125 191.003906 186.164062 190.925781 186.230469 C 190.847656 186.300781 190.753906 186.332031 190.648438 186.328125 C 190.546875 186.328125 190.457031 186.289062 190.382812 186.214844 C 190.304688 186.140625 190.265625 186.050781 190.261719 185.945312 C 190.253906 185.582031 190.277344 185.21875 190.332031 184.855469 C 190.386719 184.5 190.464844 184.148438 190.574219 183.800781 C 190.789062 183.089844 191.125 182.4375 191.582031 181.847656 C 192.046875 181.242188 192.613281 180.753906 193.28125 180.382812 C 193.933594 180.015625 194.632812 179.761719 195.367188 179.621094 C 195.726562 179.550781 196.089844 179.5 196.453125 179.46875 L 196.996094 179.4375 L 197.546875 179.4375 C 197.921875 179.445312 198.292969 179.484375 198.664062 179.546875 C 198.851562 179.578125 199.035156 179.632812 199.222656 179.675781 C 199.316406 179.699219 199.410156 179.722656 199.515625 179.75 L 199.789062 179.855469 C 200.554688 180.128906 201.21875 180.5625 201.777344 181.152344 C 201.910156 181.300781 202.035156 181.445312 202.164062 181.609375 C 202.292969 181.773438 202.386719 181.9375 202.496094 182.101562 C 202.609375 182.265625 202.683594 182.445312 202.773438 182.621094 C 202.863281 182.792969 202.921875 182.976562 203 183.152344 C 203.257812 183.859375 203.414062 184.589844 203.46875 185.34375 L 203.492188 185.621094 L 203.492188 185.914062 C 203.488281 186.117188 203.476562 186.320312 203.449219 186.523438 C 203.394531 186.925781 203.292969 187.316406 203.140625 187.695312 C 203.066406 187.882812 202.976562 188.066406 202.878906 188.242188 C 202.777344 188.417969 202.660156 188.59375 202.5625 188.730469 C 202.347656 189.042969 202.109375 189.335938 201.851562 189.609375 C 201.574219 189.902344 201.269531 190.152344 200.933594 190.371094 C 200.558594 190.613281 200.148438 190.765625 199.707031 190.828125 C 199.21875 190.894531 198.757812 190.8125 198.324219 190.585938 C 197.925781 190.378906 197.601562 190.089844 197.34375 189.722656 C 196.90625 189.074219 196.632812 188.363281 196.527344 187.585938 C 196.476562 187.226562 196.449219 186.867188 196.445312 186.507812 L 196.445312 185.976562 L 196.46875 185.472656 C 196.496094 184.800781 196.53125 184.128906 196.566406 183.457031 C 196.574219 183.351562 196.617188 183.265625 196.695312 183.195312 C 196.773438 183.125 196.863281 183.089844 196.96875 183.089844 C 197.070312 183.089844 197.160156 183.125 197.238281 183.195312 C 197.316406 183.265625 197.359375 183.351562 197.367188 183.457031 Z M 197.363281 183.46875 "/>
<path style=" stroke:none;fill-rule:nonzero;fill:rgb(13.729858%,22.349548%,25.099182%);fill-opacity:1;" d="M 170.730469 184.328125 C 170.769531 184.984375 170.800781 185.640625 170.828125 186.292969 C 170.84375 186.621094 170.851562 186.957031 170.882812 187.238281 C 170.914062 187.523438 170.976562 187.804688 171.066406 188.078125 C 171.203125 188.585938 171.5 188.976562 171.945312 189.25 C 172.164062 189.371094 172.394531 189.445312 172.644531 189.476562 C 172.902344 189.511719 173.164062 189.511719 173.421875 189.476562 C 173.929688 189.402344 174.371094 189.191406 174.742188 188.835938 C 174.925781 188.664062 175.082031 188.46875 175.207031 188.25 C 175.335938 188.027344 175.433594 187.796875 175.5 187.546875 C 175.566406 187.304688 175.597656 187.058594 175.59375 186.804688 C 175.582031 186.523438 175.550781 186.246094 175.496094 185.96875 C 175.402344 185.402344 175.234375 184.855469 174.992188 184.328125 C 174.761719 183.839844 174.453125 183.40625 174.0625 183.03125 C 173.664062 182.667969 173.214844 182.390625 172.710938 182.199219 C 172.445312 182.105469 172.171875 182.035156 171.898438 181.984375 C 171.753906 181.953125 171.613281 181.929688 171.46875 181.914062 L 171.03125 181.878906 C 170.433594 181.839844 169.835938 181.867188 169.246094 181.957031 C 168.050781 182.117188 167.050781 182.644531 166.234375 183.53125 C 165.84375 183.984375 165.539062 184.488281 165.316406 185.042969 C 165.082031 185.609375 164.9375 186.195312 164.875 186.804688 L 164.875 186.839844 C 164.863281 186.941406 164.816406 187.027344 164.738281 187.097656 C 164.65625 187.164062 164.566406 187.199219 164.460938 187.195312 C 164.355469 187.191406 164.265625 187.152344 164.191406 187.078125 C 164.117188 187.003906 164.078125 186.914062 164.074219 186.808594 C 164.0625 186.097656 164.160156 185.398438 164.367188 184.71875 C 164.570312 184.023438 164.890625 183.382812 165.320312 182.796875 C 165.761719 182.203125 166.300781 181.714844 166.9375 181.332031 C 167.570312 180.957031 168.246094 180.691406 168.960938 180.53125 C 169.65625 180.371094 170.363281 180.296875 171.078125 180.300781 L 171.617188 180.300781 C 171.792969 180.300781 171.980469 180.339844 172.160156 180.359375 C 172.53125 180.410156 172.894531 180.484375 173.253906 180.589844 C 174.003906 180.820312 174.675781 181.199219 175.261719 181.71875 C 175.554688 181.984375 175.8125 182.277344 176.042969 182.597656 C 176.148438 182.761719 176.257812 182.917969 176.351562 183.085938 C 176.441406 183.253906 176.53125 183.421875 176.609375 183.59375 C 176.90625 184.269531 177.101562 184.976562 177.195312 185.710938 C 177.21875 185.890625 177.242188 186.070312 177.253906 186.25 C 177.269531 186.445312 177.277344 186.640625 177.273438 186.835938 C 177.261719 187.242188 177.195312 187.640625 177.070312 188.027344 C 176.953125 188.414062 176.78125 188.773438 176.558594 189.109375 C 176.34375 189.445312 176.085938 189.746094 175.78125 190.007812 C 175.144531 190.554688 174.40625 190.859375 173.570312 190.917969 C 173.175781 190.941406 172.785156 190.910156 172.398438 190.824219 C 171.992188 190.742188 171.617188 190.585938 171.273438 190.359375 C 170.917969 190.125 170.625 189.832031 170.394531 189.480469 C 170.179688 189.144531 170.027344 188.789062 169.933594 188.40625 C 169.785156 187.707031 169.746094 187.003906 169.820312 186.292969 C 169.847656 185.636719 169.878906 184.984375 169.917969 184.328125 C 169.925781 184.226562 169.96875 184.140625 170.042969 184.066406 C 170.121094 183.996094 170.210938 183.960938 170.316406 183.960938 C 170.421875 183.960938 170.511719 183.996094 170.585938 184.066406 C 170.664062 184.140625 170.707031 184.226562 170.714844 184.328125 Z M 170.730469 184.328125 "/>
<path style=" stroke:none;fill-rule:nonzero;fill:rgb(13.729858%,22.349548%,25.099182%);fill-opacity:1;" d="M 213.894531 184.566406 C 214.519531 183.4375 215.082031 182.277344 215.582031 181.089844 C 216.089844 179.902344 216.539062 178.691406 216.921875 177.460938 C 217.722656 175.011719 218.140625 172.5 218.171875 169.921875 C 218.167969 168.664062 218.007812 167.421875 217.679688 166.207031 C 217.359375 165.003906 216.847656 163.890625 216.144531 162.863281 C 215.429688 161.847656 214.5625 160.984375 213.539062 160.277344 C 213.035156 159.917969 212.507812 159.589844 211.960938 159.296875 L 211.113281 158.902344 C 210.96875 158.835938 210.820312 158.761719 210.683594 158.707031 L 210.242188 158.542969 L 208.40625 157.859375 C 207.773438 157.621094 207.15625 157.351562 206.550781 157.050781 C 206.246094 156.90625 205.949219 156.75 205.660156 156.574219 C 205.367188 156.40625 205.074219 156.246094 204.78125 156.074219 L 203.9375 155.511719 L 203.515625 155.21875 C 203.375 155.121094 203.246094 155.015625 203.113281 154.925781 L 202.3125 154.308594 C 202.050781 154.09375 201.804688 153.867188 201.550781 153.648438 C 201.03125 153.214844 200.574219 152.726562 200.085938 152.257812 C 199.160156 151.296875 198.285156 150.289062 197.46875 149.234375 C 194.183594 145.058594 191.6875 140.40625 188.230469 136.707031 C 187.378906 135.792969 186.453125 134.960938 185.449219 134.21875 L 184.6875 133.691406 C 184.4375 133.507812 184.160156 133.375 183.894531 133.214844 C 183.355469 132.90625 182.800781 132.632812 182.226562 132.390625 C 179.878906 131.472656 177.445312 131.058594 174.925781 131.148438 C 169.882812 131.339844 164.722656 132.582031 160.492188 135.328125 L 159.710938 135.863281 C 159.453125 136.046875 159.214844 136.25 158.964844 136.449219 L 158.597656 136.742188 L 158.25 137.058594 C 158.019531 137.273438 157.78125 137.480469 157.558594 137.703125 C 156.671875 138.597656 155.890625 139.574219 155.214844 140.636719 C 154.546875 141.707031 154.015625 142.839844 153.613281 144.035156 C 153.207031 145.234375 152.945312 146.464844 152.832031 147.726562 C 152.753906 148.355469 152.753906 148.988281 152.738281 149.621094 C 152.71875 150.253906 152.777344 150.890625 152.859375 151.519531 L 152.910156 151.996094 C 152.929688 152.152344 152.964844 152.308594 152.988281 152.464844 C 153.042969 152.777344 153.089844 153.09375 153.152344 153.402344 C 153.296875 154.023438 153.425781 154.648438 153.621094 155.257812 C 153.820312 155.867188 154.027344 156.46875 154.238281 157.074219 C 154.359375 157.367188 154.488281 157.660156 154.613281 157.953125 L 154.800781 158.398438 L 155.015625 158.828125 L 155.441406 159.691406 L 155.917969 160.53125 L 156.152344 160.949219 L 156.414062 161.355469 L 156.933594 162.167969 L 156.933594 162.1875 C 156.992188 162.28125 157.011719 162.378906 156.992188 162.488281 C 156.96875 162.597656 156.910156 162.683594 156.816406 162.742188 C 156.726562 162.804688 156.625 162.824219 156.515625 162.800781 C 156.410156 162.78125 156.324219 162.722656 156.261719 162.628906 L 155.707031 161.808594 L 155.414062 161.398438 L 155.15625 160.972656 L 154.6875 160.113281 L 154.21875 159.234375 L 153.988281 158.792969 L 153.78125 158.339844 C 153.644531 158.046875 153.488281 157.738281 153.367188 157.429688 C 153.128906 156.808594 152.867188 156.195312 152.675781 155.558594 C 152.484375 154.917969 152.296875 154.273438 152.132812 153.625 C 152.0625 153.300781 152.003906 152.96875 151.941406 152.640625 C 151.910156 152.476562 151.875 152.3125 151.851562 152.144531 L 151.792969 151.644531 C 151.691406 150.984375 151.664062 150.3125 151.628906 149.640625 C 151.589844 148.96875 151.628906 148.292969 151.6875 147.621094 C 151.894531 144.871094 152.707031 142.316406 154.121094 139.949219 C 154.828125 138.785156 155.652344 137.710938 156.59375 136.722656 C 156.828125 136.476562 157.078125 136.253906 157.324219 136.015625 L 157.691406 135.667969 L 158.082031 135.34375 C 158.34375 135.132812 158.597656 134.90625 158.871094 134.703125 L 159.691406 134.117188 C 159.960938 133.914062 160.257812 133.75 160.542969 133.570312 C 160.828125 133.386719 161.113281 133.203125 161.421875 133.050781 C 162.007812 132.734375 162.59375 132.40625 163.222656 132.144531 C 164.445312 131.585938 165.703125 131.125 166.992188 130.753906 C 167.636719 130.570312 168.285156 130.414062 168.933594 130.25 C 169.582031 130.089844 170.242188 129.976562 170.902344 129.871094 L 171.890625 129.730469 C 172.222656 129.683594 172.546875 129.625 172.882812 129.601562 L 173.890625 129.515625 C 174.222656 129.488281 174.558594 129.449219 174.898438 129.453125 C 177.664062 129.3125 180.339844 129.746094 182.925781 130.746094 C 183.5625 131.015625 184.179688 131.316406 184.78125 131.65625 C 185.074219 131.832031 185.386719 131.984375 185.660156 132.179688 L 186.507812 132.769531 C 186.800781 132.960938 187.042969 133.191406 187.316406 133.398438 C 187.589844 133.605469 187.851562 133.824219 188.09375 134.0625 L 188.839844 134.757812 L 189.542969 135.488281 C 191.394531 137.457031 192.902344 139.65625 194.359375 141.832031 C 195.8125 144.011719 197.207031 146.203125 198.769531 148.238281 C 199.542969 149.257812 200.367188 150.238281 201.242188 151.171875 C 201.695312 151.617188 202.121094 152.085938 202.605469 152.496094 C 202.84375 152.703125 203.070312 152.921875 203.316406 153.125 L 204.054688 153.710938 C 204.179688 153.808594 204.300781 153.90625 204.429688 154.003906 L 204.816406 154.273438 L 205.597656 154.804688 C 205.867188 154.96875 206.140625 155.121094 206.410156 155.28125 C 206.679688 155.445312 206.953125 155.597656 207.238281 155.734375 C 207.796875 156.019531 208.371094 156.28125 208.957031 156.507812 L 210.78125 157.21875 L 211.253906 157.40625 C 211.410156 157.464844 211.546875 157.550781 211.710938 157.621094 L 212.628906 158.070312 C 213.226562 158.40625 213.804688 158.777344 214.355469 159.183594 C 215.484375 160 216.445312 160.984375 217.226562 162.140625 C 217.996094 163.300781 218.546875 164.554688 218.886719 165.902344 C 219.210938 167.230469 219.363281 168.574219 219.335938 169.941406 C 219.253906 172.628906 218.765625 175.242188 217.871094 177.777344 C 217.445312 179.03125 216.957031 180.257812 216.40625 181.460938 C 215.863281 182.667969 215.257812 183.839844 214.585938 184.980469 C 214.527344 185.070312 214.445312 185.125 214.34375 185.148438 C 214.242188 185.171875 214.144531 185.15625 214.054688 185.105469 C 213.964844 185.050781 213.902344 184.976562 213.871094 184.875 C 213.839844 184.773438 213.847656 184.675781 213.890625 184.582031 Z M 213.894531 184.566406 "/>
<g clip-path="url(#clip1)" clip-rule="nonzero">
<path style=" stroke:none;fill-rule:nonzero;fill:rgb(13.729858%,22.349548%,25.099182%);fill-opacity:1;" d="M 129.046875 200.964844 L 127.78125 200.15625 L 127.144531 199.753906 L 126.480469 199.402344 C 126.039062 199.171875 125.601562 198.929688 125.15625 198.703125 L 123.789062 198.105469 C 121.945312 197.335938 120.042969 196.765625 118.082031 196.390625 C 114.128906 195.65625 110.171875 195.621094 106.207031 196.285156 C 105.210938 196.429688 104.246094 196.660156 103.277344 196.855469 C 102.792969 196.957031 102.3125 197.082031 101.839844 197.230469 C 101.367188 197.375 100.886719 197.496094 100.417969 197.652344 L 99.027344 198.171875 C 98.796875 198.257812 98.5625 198.339844 98.335938 198.433594 L 97.664062 198.75 C 97.21875 198.960938 96.769531 199.160156 96.328125 199.378906 L 95.042969 200.105469 C 94.832031 200.234375 94.609375 200.339844 94.40625 200.480469 L 93.800781 200.890625 L 93.1875 201.304688 C 92.980469 201.4375 92.78125 201.578125 92.585938 201.734375 L 91.429688 202.652344 L 91.136719 202.878906 L 90.863281 203.128906 L 90.324219 203.628906 C 89.574219 204.273438 88.929688 205.023438 88.25 205.734375 C 87.921875 206.105469 87.617188 206.492188 87.300781 206.871094 L 86.828125 207.441406 L 86.394531 208.027344 C 86.101562 208.429688 85.808594 208.824219 85.53125 209.234375 L 84.730469 210.488281 C 84.4375 210.894531 84.21875 211.335938 83.972656 211.765625 C 83.726562 212.195312 83.464844 212.621094 83.253906 213.066406 L 82.582031 214.398438 C 82.46875 214.621094 82.363281 214.847656 82.261719 215.074219 L 81.96875 215.753906 C 81.542969 216.65625 81.191406 217.589844 80.816406 218.519531 C 80.117188 220.394531 79.480469 222.292969 78.964844 224.234375 C 78.453125 226.175781 77.984375 228.128906 77.589844 230.101562 C 76.046875 238.023438 75.539062 246.121094 75.386719 254.222656 C 75.386719 254.332031 75.347656 254.425781 75.269531 254.503906 C 75.191406 254.582031 75.097656 254.625 74.988281 254.625 C 74.875 254.625 74.78125 254.582031 74.703125 254.503906 C 74.625 254.425781 74.585938 254.332031 74.585938 254.222656 C 74.554688 252.1875 74.546875 250.152344 74.585938 248.117188 C 74.625 246.082031 74.691406 244.042969 74.820312 242.007812 C 75.042969 237.929688 75.492188 233.875 76.164062 229.84375 C 76.519531 227.832031 76.914062 225.816406 77.433594 223.832031 C 77.957031 221.84375 78.546875 219.875 79.230469 217.933594 C 80.640625 214.066406 82.46875 210.304688 84.984375 206.972656 L 85.449219 206.34375 L 85.949219 205.757812 C 86.285156 205.363281 86.609375 204.953125 86.957031 204.5625 C 87.6875 203.816406 88.382812 203.039062 89.183594 202.367188 L 90.0625 201.582031 L 90.371094 201.34375 L 91.613281 200.386719 C 91.816406 200.21875 92.042969 200.09375 92.257812 199.941406 L 92.914062 199.515625 L 93.570312 199.085938 C 93.789062 198.941406 94.027344 198.832031 94.25 198.699219 L 95.625 197.949219 C 96.09375 197.722656 96.574219 197.515625 97.050781 197.300781 L 97.761719 196.984375 C 98.003906 196.882812 98.25 196.804688 98.496094 196.714844 L 99.960938 196.195312 C 100.453125 196.039062 100.957031 195.914062 101.460938 195.773438 C 101.960938 195.632812 102.457031 195.480469 102.96875 195.40625 C 103.984375 195.214844 105.003906 194.992188 106.015625 194.871094 C 110.144531 194.273438 114.253906 194.402344 118.335938 195.253906 C 120.359375 195.703125 122.3125 196.355469 124.195312 197.207031 L 125.589844 197.875 C 126.046875 198.117188 126.488281 198.386719 126.9375 198.636719 L 127.605469 199.023438 L 128.246094 199.457031 L 129.519531 200.335938 C 129.613281 200.398438 129.667969 200.480469 129.691406 200.589844 C 129.714844 200.699219 129.695312 200.796875 129.632812 200.890625 C 129.574219 200.984375 129.488281 201.039062 129.382812 201.0625 C 129.273438 201.085938 129.171875 201.066406 129.082031 201.003906 Z M 129.046875 200.964844 "/>
</g>
<path style=" stroke:none;fill-rule:nonzero;fill:rgb(13.729858%,22.349548%,25.099182%);fill-opacity:1;" d="M 298.925781 249.535156 L 298.972656 252.097656 L 298.972656 252.523438 L 298.066406 252.523438 L 298.066406 251.683594 L 298.042969 250.402344 L 297.949219 245.273438 L 297.816406 235.003906 L 297.785156 232.441406 C 297.785156 231.589844 297.785156 230.730469 297.738281 229.890625 L 297.691406 228.632812 C 297.675781 228.210938 297.667969 227.789062 297.613281 227.371094 C 297.527344 226.535156 297.457031 225.699219 297.363281 224.863281 C 296.925781 221.527344 296.132812 218.273438 294.984375 215.109375 C 294.691406 214.320312 294.363281 213.554688 294.058594 212.761719 C 293.753906 211.972656 293.367188 211.242188 293.019531 210.476562 L 291.847656 208.253906 C 291.417969 207.535156 291.015625 206.789062 290.5625 206.09375 C 288.746094 203.246094 286.667969 200.605469 284.328125 198.171875 C 283.15625 196.972656 281.9375 195.792969 280.644531 194.707031 C 280.011719 194.144531 279.34375 193.628906 278.691406 193.097656 C 278.039062 192.5625 277.351562 192.066406 276.660156 191.585938 C 275.285156 190.601562 273.859375 189.683594 272.402344 188.820312 C 270.957031 187.953125 269.460938 187.167969 267.921875 186.472656 L 267.902344 186.472656 C 267.800781 186.429688 267.730469 186.359375 267.6875 186.253906 C 267.648438 186.152344 267.648438 186.050781 267.691406 185.949219 C 267.734375 185.847656 267.804688 185.773438 267.90625 185.730469 C 268.011719 185.691406 268.113281 185.691406 268.214844 185.730469 C 271.421875 187.042969 274.457031 188.675781 277.320312 190.628906 C 278.042969 191.101562 278.734375 191.613281 279.441406 192.113281 C 280.148438 192.613281 280.824219 193.148438 281.492188 193.703125 C 282.84375 194.78125 284.128906 195.949219 285.371094 197.148438 C 287.855469 199.589844 290.0625 202.261719 291.992188 205.160156 C 293.933594 208.074219 295.492188 211.183594 296.660156 214.484375 C 297.828125 217.78125 298.601562 221.167969 298.980469 224.648438 C 299.066406 225.511719 299.125 226.378906 299.195312 227.242188 C 299.238281 227.675781 299.242188 228.125 299.25 228.542969 L 299.277344 229.84375 C 299.308594 230.722656 299.277344 231.566406 299.277344 232.421875 L 299.25 234.984375 L 299.113281 245.253906 L 299.023438 250.382812 L 299 251.664062 L 299 252.523438 L 298.089844 252.523438 L 298.089844 252.101562 L 298.136719 249.539062 C 298.148438 249.433594 298.191406 249.347656 298.265625 249.277344 C 298.34375 249.207031 298.433594 249.171875 298.539062 249.171875 C 298.640625 249.171875 298.734375 249.207031 298.808594 249.277344 C 298.886719 249.347656 298.929688 249.433594 298.9375 249.539062 Z M 298.925781 249.535156 "/>
<path style=" stroke:none;fill-rule:nonzero;fill:rgb(90.979004%,90.979004%,90.979004%);fill-opacity:1;" d="M 203.554688 190.1875 L 169.519531 191.714844 C 169.140625 191.730469 168.78125 191.816406 168.4375 191.972656 C 168.089844 192.125 167.789062 192.339844 167.527344 192.613281 C 167.265625 192.886719 167.0625 193.199219 166.921875 193.550781 C 166.78125 193.902344 166.710938 194.269531 166.710938 194.648438 L 166.710938 195.144531 C 166.710938 195.53125 166.785156 195.90625 166.933594 196.265625 C 167.082031 196.625 167.292969 196.941406 167.570312 197.21875 C 167.84375 197.492188 168.160156 197.703125 168.519531 197.855469 C 168.878906 198.003906 169.253906 198.078125 169.640625 198.078125 L 204.179688 198.078125 C 204.402344 198.078125 204.621094 198.054688 204.839844 198.003906 C 205.058594 197.957031 205.265625 197.882812 205.46875 197.785156 C 205.667969 197.6875 205.855469 197.570312 206.03125 197.429688 C 206.203125 197.289062 206.359375 197.128906 206.496094 196.953125 C 206.636719 196.777344 206.753906 196.589844 206.847656 196.386719 C 206.941406 196.1875 207.011719 195.976562 207.058594 195.757812 C 207.105469 195.539062 207.125 195.316406 207.121094 195.09375 C 207.117188 194.871094 207.089844 194.648438 207.035156 194.433594 L 206.546875 192.433594 C 206.46875 192.101562 206.332031 191.792969 206.144531 191.507812 C 205.957031 191.222656 205.726562 190.976562 205.453125 190.769531 C 205.183594 190.566406 204.882812 190.414062 204.554688 190.3125 C 204.230469 190.214844 203.894531 190.171875 203.554688 190.1875 Z M 203.554688 190.1875 "/>
<path style=" stroke:none;fill-rule:nonzero;fill:rgb(90.979004%,90.979004%,90.979004%);fill-opacity:1;" d="M 203.175781 191.820312 L 170.910156 190.410156 C 170.496094 190.386719 170.09375 190.453125 169.707031 190.605469 C 169.320312 190.753906 168.980469 190.976562 168.6875 191.273438 C 168.394531 191.566406 168.175781 191.910156 168.027344 192.296875 C 167.878906 192.6875 167.816406 193.089844 167.839844 193.503906 L 167.921875 195.085938 C 167.941406 195.464844 168.03125 195.828125 168.1875 196.171875 C 168.34375 196.519531 168.5625 196.820312 168.835938 197.082031 C 169.113281 197.34375 169.425781 197.542969 169.78125 197.679688 C 170.132812 197.820312 170.5 197.886719 170.878906 197.882812 L 203.0625 197.714844 C 203.597656 197.710938 204.09375 197.574219 204.550781 197.300781 C 205.007812 197.03125 205.367188 196.660156 205.625 196.191406 C 205.746094 195.972656 205.839844 195.738281 205.90625 195.496094 C 205.96875 195.253906 206 195.007812 206 194.753906 C 206 194.503906 205.96875 194.253906 205.90625 194.011719 C 205.84375 193.769531 205.75 193.535156 205.625 193.316406 C 205.503906 193.097656 205.355469 192.898438 205.179688 192.714844 C 205.007812 192.535156 204.8125 192.378906 204.597656 192.246094 C 204.382812 192.117188 204.15625 192.015625 203.914062 191.941406 C 203.675781 191.871094 203.429688 191.828125 203.175781 191.820312 Z M 203.175781 191.820312 "/>
</g>
</svg>
